<svg width="150" height="150" viewBox="0 0 150 150" fill="none" xmlns="http://www.w3.org/2000/svg">
<circle cx="75" cy="75" r="75" fill="#FFEADC"/>
<path d="M105.526 85.68L113.885 93.5871L89.1749 117H80.7752V109.054L105.526 85.68ZM113.559 78.93C114.129 78.93 114.659 79.1614 115.108 79.5857L120.327 84.5229C121.224 85.3329 121.224 86.6829 120.327 87.4929L116.25 91.35L107.891 83.4429L111.968 79.5857C112.417 79.1614 112.988 78.93 113.559 78.93ZM113.395 63H88.9303V90L80.7752 97.7143V90H72.6202V113.143H64.4651V63H40V55.2857H113.395V63ZM76.6977 36C81.183 36 84.8527 39.4714 84.8527 43.7143C84.8527 47.9571 81.183 51.4286 76.6977 51.4286C72.2124 51.4286 68.5427 47.9571 68.5427 43.7143C68.5427 39.4714 72.2124 36 76.6977 36Z" fill="black"/>
</svg>
