<svg width="297" height="72" viewBox="0 0 297 72" fill="none" xmlns="http://www.w3.org/2000/svg">
<path d="M21.3707 70.5H0.916193L23.9616 0.681816H49.8707L72.9162 70.5H52.4617L37.1889 19.9091H36.6435L21.3707 70.5ZM17.5526 42.9545H56.0071V57.1364H17.5526V42.9545ZM79.6406 70.5V0.681816H98.4588V27.2727H98.7315C99.4134 25.5 100.413 23.875 101.732 22.3977C103.05 20.8977 104.686 19.7045 106.641 18.8182C108.595 17.9091 110.868 17.4545 113.459 17.4545C116.913 17.4545 120.197 18.375 123.311 20.2159C126.447 22.0568 128.993 24.9545 130.947 28.9091C132.925 32.8636 133.913 38 133.913 44.3182C133.913 50.3636 132.97 55.375 131.084 59.3523C129.22 63.3295 126.72 66.2955 123.584 68.25C120.47 70.2045 117.05 71.1818 113.322 71.1818C110.868 71.1818 108.675 70.7841 106.743 69.9886C104.834 69.1705 103.197 68.0682 101.834 66.6818C100.493 65.2727 99.4588 63.6818 98.7315 61.9091H98.3224V70.5H79.6406ZM98.0497 44.3182C98.0497 46.8636 98.3793 49.0682 99.0384 50.9318C99.7202 52.7727 100.675 54.2045 101.902 55.2273C103.152 56.2273 104.641 56.7273 106.368 56.7273C108.095 56.7273 109.561 56.2386 110.766 55.2614C111.993 54.2614 112.925 52.8409 113.561 51C114.22 49.1364 114.55 46.9091 114.55 44.3182C114.55 41.7273 114.22 39.5114 113.561 37.6705C112.925 35.8068 111.993 34.3864 110.766 33.4091C109.561 32.4091 108.095 31.9091 106.368 31.9091C104.641 31.9091 103.152 32.4091 101.902 33.4091C100.675 34.3864 99.7202 35.8068 99.0384 37.6705C98.3793 39.5114 98.0497 41.7273 98.0497 44.3182ZM167.016 71.4545C161.334 71.4545 156.47 70.3295 152.425 68.0795C148.379 65.8068 145.277 62.6477 143.118 58.6023C140.959 54.5341 139.879 49.8182 139.879 44.4545C139.879 39.0909 140.959 34.3864 143.118 30.3409C145.277 26.2727 148.379 23.1136 152.425 20.8636C156.47 18.5909 161.334 17.4545 167.016 17.4545C172.697 17.4545 177.561 18.5909 181.607 20.8636C185.652 23.1136 188.754 26.2727 190.913 30.3409C193.072 34.3864 194.152 39.0909 194.152 44.4545C194.152 49.8182 193.072 54.5341 190.913 58.6023C188.754 62.6477 185.652 65.8068 181.607 68.0795C177.561 70.3295 172.697 71.4545 167.016 71.4545ZM167.152 57.5455C168.743 57.5455 170.118 57.0114 171.277 55.9432C172.436 54.875 173.334 53.3523 173.97 51.375C174.607 49.3977 174.925 47.0455 174.925 44.3182C174.925 41.5682 174.607 39.2159 173.97 37.2614C173.334 35.2841 172.436 33.7614 171.277 32.6932C170.118 31.625 168.743 31.0909 167.152 31.0909C165.47 31.0909 164.027 31.625 162.822 32.6932C161.618 33.7614 160.697 35.2841 160.061 37.2614C159.425 39.2159 159.107 41.5682 159.107 44.3182C159.107 47.0455 159.425 49.3977 160.061 51.375C160.697 53.3523 161.618 54.875 162.822 55.9432C164.027 57.0114 165.47 57.5455 167.152 57.5455ZM235.743 47.5909V18.1364H254.561V70.5H236.697V60.5455H236.152C235.016 63.8864 233.027 66.5 230.186 68.3864C227.345 70.25 223.97 71.1818 220.061 71.1818C216.402 71.1818 213.197 70.3409 210.447 68.6591C207.72 66.9773 205.595 64.6591 204.072 61.7045C202.572 58.75 201.811 55.3636 201.788 51.5455V18.1364H220.607V47.5909C220.629 50.1818 221.288 52.2159 222.584 53.6932C223.902 55.1705 225.743 55.9091 228.107 55.9091C229.675 55.9091 231.027 55.5795 232.163 54.9205C233.322 54.2386 234.209 53.2841 234.822 52.0568C235.459 50.8068 235.766 49.3182 235.743 47.5909ZM295.359 18.1364V31.7727H260.859V18.1364H295.359ZM267.541 5.59091H286.359V53.6591C286.359 54.3864 286.484 55 286.734 55.5C286.984 55.9773 287.371 56.3409 287.893 56.5909C288.416 56.8182 289.087 56.9318 289.905 56.9318C290.473 56.9318 291.132 56.8636 291.882 56.7273C292.655 56.5909 293.223 56.4773 293.587 56.3864L296.314 69.6136C295.473 69.8636 294.268 70.1705 292.7 70.5341C291.155 70.8977 289.314 71.1364 287.178 71.25C282.859 71.4773 279.234 71.0341 276.303 69.9205C273.371 68.7841 271.166 67 269.689 64.5682C268.212 62.1364 267.496 59.0909 267.541 55.4318V5.59091Z" fill="#FFFCFC"/>
</svg>
