<svg width="383" height="73" viewBox="0 0 383 73" fill="none" xmlns="http://www.w3.org/2000/svg">
<path d="M65.6818 27.3636H46.4545C46.3182 25.7727 45.9545 24.3295 45.3636 23.0341C44.7955 21.7386 44 20.625 42.9773 19.6932C41.9773 18.7386 40.7614 18.0114 39.3295 17.5114C37.8977 16.9886 36.2727 16.7273 34.4545 16.7273C31.2727 16.7273 28.5795 17.5 26.375 19.0455C24.1932 20.5909 22.5341 22.8068 21.3977 25.6932C20.2841 28.5795 19.7273 32.0455 19.7273 36.0909C19.7273 40.3636 20.2955 43.9432 21.4318 46.8295C22.5909 49.6932 24.2614 51.8523 26.4432 53.3068C28.625 54.7386 31.25 55.4545 34.3182 55.4545C36.0682 55.4545 37.6364 55.2386 39.0227 54.8068C40.4091 54.3523 41.6136 53.7045 42.6364 52.8636C43.6591 52.0227 44.4886 51.0114 45.125 49.8295C45.7841 48.625 46.2273 47.2727 46.4545 45.7727L65.6818 45.9091C65.4545 48.8636 64.625 51.875 63.1932 54.9432C61.7614 57.9886 59.7273 60.8068 57.0909 63.3977C54.4773 65.9659 51.2386 68.0341 47.375 69.6023C43.5114 71.1705 39.0227 71.9545 33.9091 71.9545C27.5 71.9545 21.75 70.5795 16.6591 67.8295C11.5909 65.0795 7.57955 61.0341 4.625 55.6932C1.69318 50.3523 0.227273 43.8182 0.227273 36.0909C0.227273 28.3182 1.72727 21.7727 4.72727 16.4545C7.72727 11.1136 11.7727 7.07954 16.8636 4.35227C21.9545 1.60227 27.6364 0.22727 33.9091 0.22727C38.3182 0.22727 42.375 0.829542 46.0795 2.03409C49.7841 3.23863 53.0341 5 55.8295 7.31818C58.625 9.61363 60.875 12.4432 62.5795 15.8068C64.2841 19.1705 65.3182 23.0227 65.6818 27.3636ZM99.7812 71.9545C94.0994 71.9545 89.2358 70.8295 85.1903 68.5795C81.1449 66.3068 78.0426 63.1477 75.8835 59.1023C73.7244 55.0341 72.6449 50.3182 72.6449 44.9545C72.6449 39.5909 73.7244 34.8864 75.8835 30.8409C78.0426 26.7727 81.1449 23.6136 85.1903 21.3636C89.2358 19.0909 94.0994 17.9545 99.7812 17.9545C105.463 17.9545 110.327 19.0909 114.372 21.3636C118.418 23.6136 121.52 26.7727 123.679 30.8409C125.838 34.8864 126.918 39.5909 126.918 44.9545C126.918 50.3182 125.838 55.0341 123.679 59.1023C121.52 63.1477 118.418 66.3068 114.372 68.5795C110.327 70.8295 105.463 71.9545 99.7812 71.9545ZM99.9176 58.0455C101.509 58.0455 102.884 57.5114 104.043 56.4432C105.202 55.375 106.099 53.8523 106.736 51.875C107.372 49.8977 107.69 47.5455 107.69 44.8182C107.69 42.0682 107.372 39.7159 106.736 37.7614C106.099 35.7841 105.202 34.2614 104.043 33.1932C102.884 32.125 101.509 31.5909 99.9176 31.5909C98.2358 31.5909 96.7926 32.125 95.5881 33.1932C94.3835 34.2614 93.4631 35.7841 92.8267 37.7614C92.1903 39.7159 91.8722 42.0682 91.8722 44.8182C91.8722 47.5455 92.1903 49.8977 92.8267 51.875C93.4631 53.8523 94.3835 55.375 95.5881 56.4432C96.7926 57.5114 98.2358 58.0455 99.9176 58.0455ZM153.372 41.5455V71H134.554V18.6364H152.418V28.5909H152.963C154.099 25.2727 156.099 22.6705 158.963 20.7841C161.849 18.8977 165.213 17.9545 169.054 17.9545C172.759 17.9545 175.974 18.8068 178.702 20.5114C181.452 22.1932 183.577 24.5114 185.077 27.4659C186.599 30.4205 187.349 33.7955 187.327 37.5909V71H168.509V41.5455C168.531 38.9545 167.872 36.9205 166.531 35.4432C165.213 33.9659 163.372 33.2273 161.009 33.2273C159.463 33.2273 158.111 33.5682 156.952 34.25C155.815 34.9091 154.94 35.8636 154.327 37.1136C153.713 38.3409 153.395 39.8182 153.372 41.5455ZM227.844 18.6364V32.2727H193.344V18.6364H227.844ZM200.026 6.09091H218.844V54.1591C218.844 54.8864 218.969 55.5 219.219 56C219.469 56.4773 219.855 56.8409 220.378 57.0909C220.901 57.3182 221.571 57.4318 222.389 57.4318C222.957 57.4318 223.616 57.3636 224.366 57.2273C225.139 57.0909 225.707 56.9773 226.071 56.8864L228.798 70.1136C227.957 70.3636 226.753 70.6705 225.185 71.0341C223.639 71.3977 221.798 71.6364 219.662 71.75C215.344 71.9773 211.719 71.5341 208.787 70.4205C205.855 69.2841 203.651 67.5 202.173 65.0682C200.696 62.6364 199.98 59.5909 200.026 55.9318V6.09091ZM250.114 71.8182C246.773 71.8182 243.818 71.2727 241.25 70.1818C238.705 69.0682 236.705 67.3864 235.25 65.1364C233.795 62.8864 233.068 60.0227 233.068 56.5455C233.068 53.6818 233.557 51.2386 234.534 49.2159C235.511 47.1705 236.875 45.5 238.625 44.2045C240.375 42.9091 242.409 41.9205 244.727 41.2386C247.068 40.5568 249.591 40.1136 252.295 39.9091C255.227 39.6818 257.58 39.4091 259.352 39.0909C261.148 38.75 262.443 38.2841 263.239 37.6932C264.034 37.0795 264.432 36.2727 264.432 35.2727V35.1364C264.432 33.7727 263.909 32.7273 262.864 32C261.818 31.2727 260.477 30.9091 258.841 30.9091C257.045 30.9091 255.58 31.3068 254.443 32.1023C253.33 32.875 252.659 34.0682 252.432 35.6818H235.114C235.341 32.5 236.352 29.5682 238.148 26.8864C239.966 24.1818 242.614 22.0227 246.091 20.4091C249.568 18.7727 253.909 17.9545 259.114 17.9545C262.864 17.9545 266.227 18.3977 269.205 19.2841C272.182 20.1477 274.716 21.3636 276.807 22.9318C278.898 24.4773 280.489 26.2955 281.58 28.3864C282.693 30.4545 283.25 32.7045 283.25 35.1364V71H265.659V63.6364H265.25C264.205 65.5909 262.932 67.1705 261.432 68.375C259.955 69.5795 258.261 70.4545 256.352 71C254.466 71.5455 252.386 71.8182 250.114 71.8182ZM256.25 59.9545C257.682 59.9545 259.023 59.6591 260.273 59.0682C261.545 58.4773 262.58 57.625 263.375 56.5114C264.17 55.3977 264.568 54.0455 264.568 52.4545V48.0909C264.068 48.2955 263.534 48.4886 262.966 48.6705C262.42 48.8523 261.83 49.0227 261.193 49.1818C260.58 49.3409 259.92 49.4886 259.216 49.625C258.534 49.7614 257.818 49.8864 257.068 50C255.614 50.2273 254.42 50.6023 253.489 51.125C252.58 51.625 251.898 52.25 251.443 53C251.011 53.7273 250.795 54.5455 250.795 55.4545C250.795 56.9091 251.307 58.0227 252.33 58.7955C253.352 59.5682 254.659 59.9545 256.25 59.9545ZM317.469 71.9545C311.787 71.9545 306.923 70.8295 302.878 68.5795C298.832 66.3068 295.73 63.1477 293.571 59.1023C291.412 55.0341 290.332 50.3182 290.332 44.9545C290.332 39.5909 291.412 34.8864 293.571 30.8409C295.73 26.7727 298.832 23.6136 302.878 21.3636C306.923 19.0909 311.787 17.9545 317.469 17.9545C322.605 17.9545 327.048 18.8864 330.798 20.75C334.571 22.5909 337.491 25.2045 339.56 28.5909C341.628 31.9545 342.673 35.9091 342.696 40.4545H325.241C324.991 37.7045 324.196 35.6136 322.855 34.1818C321.537 32.7273 319.832 32 317.741 32C316.105 32 314.673 32.4773 313.446 33.4318C312.219 34.3636 311.264 35.7841 310.582 37.6932C309.901 39.5795 309.56 41.9545 309.56 44.8182C309.56 47.6818 309.901 50.0682 310.582 51.9773C311.264 53.8636 312.219 55.2841 313.446 56.2386C314.673 57.1705 316.105 57.6364 317.741 57.6364C319.128 57.6364 320.355 57.3182 321.423 56.6818C322.491 56.0227 323.355 55.0682 324.014 53.8182C324.696 52.5455 325.105 51 325.241 49.1818H342.696C342.628 53.7955 341.571 57.8182 339.526 61.25C337.48 64.6591 334.582 67.2955 330.832 69.1591C327.105 71.0227 322.651 71.9545 317.469 71.9545ZM381.688 18.6364V32.2727H347.188V18.6364H381.688ZM353.869 6.09091H372.688V54.1591C372.688 54.8864 372.812 55.5 373.062 56C373.312 56.4773 373.699 56.8409 374.222 57.0909C374.744 57.3182 375.415 57.4318 376.233 57.4318C376.801 57.4318 377.46 57.3636 378.21 57.2273C378.983 57.0909 379.551 56.9773 379.915 56.8864L382.642 70.1136C381.801 70.3636 380.597 70.6705 379.028 71.0341C377.483 71.3977 375.642 71.6364 373.506 71.75C369.188 71.9773 365.563 71.5341 362.631 70.4205C359.699 69.2841 357.494 67.5 356.017 65.0682C354.54 62.6364 353.824 59.5909 353.869 55.9318V6.09091Z" fill="#FFFCFC"/>
</svg>
