<svg width="150" height="150" viewBox="0 0 150 150" fill="none" xmlns="http://www.w3.org/2000/svg">
<circle cx="75" cy="75" r="75" fill="#FFEADC"/>
<path d="M48.1 105C46.1475 105 44.4766 104.303 43.0874 102.909C41.6982 101.515 41.0024 99.8367 41 97.875V55.125C41 53.1656 41.6958 51.4889 43.0874 50.0947C44.479 48.7006 46.1499 48.0024 48.1 48H104.9C106.852 48 108.525 48.6982 109.916 50.0947C111.308 51.4912 112.002 53.168 112 55.125V97.875C112 99.8344 111.305 101.512 109.916 102.909C108.527 104.305 106.855 105.002 104.9 105H48.1ZM76.5 80.0625L104.9 62.25V55.125L76.5 72.9375L48.1 55.125V62.25L76.5 80.0625Z" fill="black"/>
</svg>
