<svg width="105" height="78" viewBox="0 0 105 78" fill="none" xmlns="http://www.w3.org/2000/svg">
<mask id="path-1-outside-1_24_2" maskUnits="userSpaceOnUse" x="31" y="17" width="56" height="48" fill="black">
<rect fill="white" x="31" y="17" width="56" height="48"/>
<path d="M43.9482 19.3636V63H32.1016V19.3636H43.9482ZM73.0852 33C72.9716 31.5795 72.4389 30.4716 71.4872 29.6761C70.5497 28.8807 69.1222 28.483 67.2046 28.483C65.983 28.483 64.9815 28.6321 64.2003 28.9304C63.4333 29.2145 62.8651 29.6051 62.4958 30.1023C62.1264 30.5994 61.9347 31.1676 61.9205 31.8068C61.8921 32.3324 61.9844 32.8082 62.1975 33.2344C62.4247 33.6463 62.7798 34.0227 63.2628 34.3636C63.7458 34.6903 64.3636 34.9886 65.1165 35.2585C65.8693 35.5284 66.7642 35.7699 67.8011 35.983L71.3807 36.75C73.7955 37.2614 75.8622 37.9361 77.581 38.7741C79.2997 39.6122 80.706 40.5994 81.7997 41.7358C82.8935 42.858 83.696 44.1222 84.2074 45.5284C84.733 46.9347 85.0029 48.4687 85.0171 50.1307C85.0029 53 84.2855 55.429 82.8651 57.4176C81.4446 59.4062 79.4134 60.919 76.7713 61.956C74.1435 62.9929 70.983 63.5114 67.2898 63.5114C63.4972 63.5114 60.1875 62.9503 57.3608 61.8281C54.5483 60.706 52.3608 58.9801 50.7983 56.6506C49.25 54.3068 48.4688 51.3097 48.4546 47.6591H59.7046C59.7756 48.9943 60.1094 50.1165 60.706 51.0256C61.3026 51.9347 62.1406 52.6236 63.2202 53.0923C64.3139 53.5611 65.6136 53.7955 67.1193 53.7955C68.3835 53.7955 69.4418 53.6392 70.294 53.3267C71.1463 53.0142 71.7926 52.581 72.233 52.027C72.6733 51.473 72.9006 50.8409 72.9148 50.1307C72.9006 49.4631 72.6804 48.8807 72.2543 48.3835C71.8423 47.8722 71.1605 47.4176 70.2088 47.0199C69.2571 46.608 67.9716 46.2244 66.3523 45.8693L62.0057 44.9318C58.1421 44.0937 55.0952 42.6946 52.8651 40.7344C50.6492 38.7599 49.5483 36.0682 49.5625 32.6591C49.5483 29.8892 50.2869 27.4673 51.7784 25.3935C53.2841 23.3054 55.3651 21.679 58.0213 20.5142C60.6918 19.3494 63.7529 18.767 67.2046 18.767C70.7273 18.767 73.7742 19.3565 76.3452 20.5355C78.9162 21.7145 80.8977 23.3764 82.2898 25.5213C83.696 27.652 84.4063 30.1449 84.4205 33H73.0852Z"/>
</mask>
<path d="M43.9482 19.3636V63H32.1016V19.3636H43.9482ZM73.0852 33C72.9716 31.5795 72.4389 30.4716 71.4872 29.6761C70.5497 28.8807 69.1222 28.483 67.2046 28.483C65.983 28.483 64.9815 28.6321 64.2003 28.9304C63.4333 29.2145 62.8651 29.6051 62.4958 30.1023C62.1264 30.5994 61.9347 31.1676 61.9205 31.8068C61.8921 32.3324 61.9844 32.8082 62.1975 33.2344C62.4247 33.6463 62.7798 34.0227 63.2628 34.3636C63.7458 34.6903 64.3636 34.9886 65.1165 35.2585C65.8693 35.5284 66.7642 35.7699 67.8011 35.983L71.3807 36.75C73.7955 37.2614 75.8622 37.9361 77.581 38.7741C79.2997 39.6122 80.706 40.5994 81.7997 41.7358C82.8935 42.858 83.696 44.1222 84.2074 45.5284C84.733 46.9347 85.0029 48.4687 85.0171 50.1307C85.0029 53 84.2855 55.429 82.8651 57.4176C81.4446 59.4062 79.4134 60.919 76.7713 61.956C74.1435 62.9929 70.983 63.5114 67.2898 63.5114C63.4972 63.5114 60.1875 62.9503 57.3608 61.8281C54.5483 60.706 52.3608 58.9801 50.7983 56.6506C49.25 54.3068 48.4688 51.3097 48.4546 47.6591H59.7046C59.7756 48.9943 60.1094 50.1165 60.706 51.0256C61.3026 51.9347 62.1406 52.6236 63.2202 53.0923C64.3139 53.5611 65.6136 53.7955 67.1193 53.7955C68.3835 53.7955 69.4418 53.6392 70.294 53.3267C71.1463 53.0142 71.7926 52.581 72.233 52.027C72.6733 51.473 72.9006 50.8409 72.9148 50.1307C72.9006 49.4631 72.6804 48.8807 72.2543 48.3835C71.8423 47.8722 71.1605 47.4176 70.2088 47.0199C69.2571 46.608 67.9716 46.2244 66.3523 45.8693L62.0057 44.9318C58.1421 44.0937 55.0952 42.6946 52.8651 40.7344C50.6492 38.7599 49.5483 36.0682 49.5625 32.6591C49.5483 29.8892 50.2869 27.4673 51.7784 25.3935C53.2841 23.3054 55.3651 21.679 58.0213 20.5142C60.6918 19.3494 63.7529 18.767 67.2046 18.767C70.7273 18.767 73.7742 19.3565 76.3452 20.5355C78.9162 21.7145 80.8977 23.3764 82.2898 25.5213C83.696 27.652 84.4063 30.1449 84.4205 33H73.0852Z" fill="#F2A167"/>
<path d="M43.9482 19.3636H44.9482V18.3636H43.9482V19.3636ZM43.9482 63V64H44.9482V63H43.9482ZM32.1016 63H31.1016V64H32.1016V63ZM32.1016 19.3636V18.3636H31.1016V19.3636H32.1016ZM42.9482 19.3636V63H44.9482V19.3636H42.9482ZM43.9482 62H32.1016V64H43.9482V62ZM33.1016 63V19.3636H31.1016V63H33.1016ZM32.1016 20.3636H43.9482V18.3636H32.1016V20.3636ZM73.0852 33L72.0884 33.0797L72.162 34H73.0852V33ZM71.4872 29.6761L70.8402 30.4387L70.8459 30.4434L71.4872 29.6761ZM64.2003 28.9304L64.5476 29.8682L64.557 29.8646L64.2003 28.9304ZM62.4958 30.1023L61.693 29.5059L61.693 29.5059L62.4958 30.1023ZM61.9205 31.8068L62.919 31.8608L62.9199 31.8449L62.9202 31.829L61.9205 31.8068ZM62.1975 33.2344L61.303 33.6816L61.3121 33.6997L61.3219 33.7175L62.1975 33.2344ZM63.2628 34.3636L62.6861 35.1806L62.6942 35.1863L62.7025 35.1919L63.2628 34.3636ZM67.8011 35.983L68.0107 35.0051L68.0024 35.0034L67.8011 35.983ZM71.3807 36.75L71.1712 37.7278L71.1735 37.7283L71.3807 36.75ZM81.7997 41.7358L81.0792 42.4293L81.0836 42.4338L81.7997 41.7358ZM84.2074 45.5284L83.2676 45.8702L83.2707 45.8785L84.2074 45.5284ZM85.0171 50.1307L86.0171 50.1356L86.017 50.1221L85.0171 50.1307ZM82.8651 57.4176L83.6788 57.9989L83.6788 57.9989L82.8651 57.4176ZM76.7713 61.956L76.406 61.0251L76.4043 61.0258L76.7713 61.956ZM57.3608 61.8281L56.9902 62.7569L56.9918 62.7576L57.3608 61.8281ZM50.7983 56.6506L49.9639 57.2018L49.9678 57.2076L50.7983 56.6506ZM48.4546 47.6591V46.6591H47.4507L47.4546 47.663L48.4546 47.6591ZM59.7046 47.6591L60.7031 47.606L60.6528 46.6591H59.7046V47.6591ZM60.706 51.0256L59.8699 51.5742L59.8699 51.5742L60.706 51.0256ZM63.2202 53.0923L62.8219 54.0096L62.8263 54.0115L63.2202 53.0923ZM70.294 53.3267L70.6383 54.2656L70.6383 54.2656L70.294 53.3267ZM72.233 52.027L73.0158 52.6492L73.0158 52.6492L72.233 52.027ZM72.9148 50.1307L73.9146 50.1507L73.915 50.13L73.9146 50.1094L72.9148 50.1307ZM72.2543 48.3835L71.4755 49.0109L71.4851 49.0227L71.495 49.0343L72.2543 48.3835ZM70.2088 47.0199L69.8116 47.9377L69.8232 47.9426L70.2088 47.0199ZM66.3523 45.8693L66.5665 44.8925L66.5631 44.8918L66.3523 45.8693ZM62.0057 44.9318L61.7937 45.9091L61.7949 45.9093L62.0057 44.9318ZM52.8651 40.7344L52.1998 41.481L52.2049 41.4855L52.8651 40.7344ZM49.5625 32.6591L50.5625 32.6633L50.5625 32.654L49.5625 32.6591ZM51.7784 25.3935L50.9673 24.8086L50.9666 24.8096L51.7784 25.3935ZM58.0213 20.5142L57.6215 19.5976L57.6197 19.5984L58.0213 20.5142ZM76.3452 20.5355L75.9284 21.4445L75.9284 21.4445L76.3452 20.5355ZM82.2898 25.5213L81.4509 26.0657L81.4552 26.0721L82.2898 25.5213ZM84.4205 33V34H85.4255L85.4205 32.995L84.4205 33ZM74.0821 32.9203C73.9505 31.2755 73.3174 29.9025 72.1285 28.9089L70.8459 30.4434C71.5605 31.0407 71.9927 31.8836 72.0884 33.0797L74.0821 32.9203ZM72.1342 28.9136C70.9388 27.8994 69.2331 27.483 67.2046 27.483V29.483C69.0112 29.483 70.1606 29.862 70.8403 30.4386L72.1342 28.9136ZM67.2046 27.483C65.9122 27.483 64.7784 27.6393 63.8436 27.9962L64.557 29.8646C65.1847 29.6249 66.0537 29.483 67.2046 29.483V27.483ZM63.853 27.9926C62.9614 28.3229 62.2095 28.8107 61.693 29.5059L63.2985 30.6986C63.5206 30.3996 63.9051 30.1061 64.5476 29.8681L63.853 27.9926ZM61.693 29.5059C61.1959 30.1751 60.9394 30.9454 60.9207 31.7846L62.9202 31.829C62.93 31.3898 63.0569 31.0238 63.2985 30.6986L61.693 29.5059ZM60.9219 31.7528C60.8852 32.4331 61.0044 33.0844 61.303 33.6816L63.0919 32.7872C62.9643 32.5321 62.899 32.2317 62.919 31.8608L60.9219 31.7528ZM61.3219 33.7175C61.6385 34.2914 62.1104 34.7742 62.6861 35.1806L63.8395 33.5467C63.4493 33.2712 63.2109 33.0012 63.073 32.7513L61.3219 33.7175ZM62.7025 35.1919C63.2749 35.5792 63.9744 35.9114 64.779 36.1999L65.454 34.3172C64.7529 34.0659 64.2166 33.8015 63.8231 33.5354L62.7025 35.1919ZM64.779 36.1999C65.5879 36.4898 66.5305 36.7428 67.5999 36.9625L68.0024 35.0034C66.9979 34.797 66.1508 34.567 65.454 34.3172L64.779 36.1999ZM67.5916 36.9608L71.1712 37.7278L71.5902 35.7722L68.0107 35.0052L67.5916 36.9608ZM71.1735 37.7283C73.5301 38.2274 75.5151 38.8794 77.1427 39.673L78.0193 37.8753C76.2093 36.9928 74.0608 36.2954 71.5879 35.7717L71.1735 37.7283ZM77.1427 39.673C78.7778 40.4703 80.082 41.3932 81.0792 42.4293L82.5202 41.0423C81.33 39.8057 79.8217 38.7542 78.0193 37.8753L77.1427 39.673ZM81.0836 42.4338C82.0832 43.4593 82.807 44.6035 83.2676 45.8702L85.1472 45.1867C84.5851 43.6409 83.7038 42.2566 82.5158 41.0378L81.0836 42.4338ZM83.2707 45.8785C83.7513 47.1644 84.0038 48.5815 84.0171 50.1392L86.017 50.1221C86.0019 48.356 85.7147 46.7049 85.1441 45.1783L83.2707 45.8785ZM84.0171 50.1257C84.0037 52.8253 83.3318 55.0438 82.0513 56.8364L83.6788 57.9989C85.2393 55.8142 86.002 53.1747 86.017 50.1356L84.0171 50.1257ZM82.0513 56.8364C80.7606 58.6434 78.8976 60.0472 76.406 61.0251L77.1367 62.8868C79.9291 61.7909 82.1286 60.1691 83.6788 57.9989L82.0513 56.8364ZM76.4043 61.0258C73.9231 62.0048 70.894 62.5114 67.2898 62.5114V64.5114C71.072 64.5114 74.3638 63.981 77.1384 62.8862L76.4043 61.0258ZM67.2898 62.5114C63.5934 62.5114 60.414 61.9643 57.7298 60.8987L56.9918 62.7576C59.961 63.9363 63.4009 64.5114 67.2898 64.5114V62.5114ZM57.7314 60.8993C55.0905 59.8456 53.07 58.2422 51.6288 56.0935L49.9678 57.2076C51.6517 59.7181 54.0061 61.5663 56.9902 62.7569L57.7314 60.8993ZM51.6327 56.0994C50.2195 53.9602 49.4682 51.1687 49.4545 47.6552L47.4546 47.663C47.4693 51.4506 48.2805 54.6534 49.9639 57.2018L51.6327 56.0994ZM48.4546 48.6591H59.7046V46.6591H48.4546V48.6591ZM58.706 47.7122C58.7842 49.1838 59.1563 50.4868 59.8699 51.5742L61.542 50.4769C61.0625 49.7462 60.7669 48.8049 60.7031 47.606L58.706 47.7122ZM59.8699 51.5742C60.5823 52.6597 61.579 53.4699 62.8219 54.0096L63.6185 52.1751C62.7023 51.7772 62.0229 51.2096 61.542 50.4769L59.8699 51.5742ZM62.8263 54.0115C64.0728 54.5457 65.5128 54.7955 67.1193 54.7955V52.7955C65.7144 52.7955 64.5551 52.5765 63.6141 52.1732L62.8263 54.0115ZM67.1193 54.7955C68.4583 54.7955 69.6418 54.631 70.6383 54.2656L69.9498 52.3878C69.2418 52.6474 68.3088 52.7955 67.1193 52.7955V54.7955ZM70.6383 54.2656C71.6151 53.9074 72.433 53.3824 73.0158 52.6492L71.4501 51.4047C71.1522 51.7795 70.6776 52.121 69.9498 52.3878L70.6383 54.2656ZM73.0158 52.6492C73.5931 51.923 73.896 51.0791 73.9146 50.1507L71.915 50.1107C71.9051 50.6027 71.7536 51.023 71.4501 51.4047L73.0158 52.6492ZM73.9146 50.1094C73.8955 49.2154 73.5935 48.4093 73.0135 47.7327L71.495 49.0343C71.7673 49.352 71.9056 49.7107 71.915 50.152L73.9146 50.1094ZM73.033 47.7562C72.4735 47.0616 71.6204 46.526 70.5944 46.0972L69.8232 47.9426C70.7006 48.3092 71.2112 48.6827 71.4755 49.0109L73.033 47.7562ZM70.606 46.1022C69.5712 45.6542 68.2161 45.2543 66.5665 44.8925L66.1381 46.8461C67.7271 47.1946 68.9431 47.5617 69.8116 47.9376L70.606 46.1022ZM66.5631 44.8918L62.2165 43.9543L61.7949 45.9093L66.1414 46.8468L66.5631 44.8918ZM62.2177 43.9545C58.4671 43.141 55.5922 41.8001 53.5253 39.9833L52.2049 41.4855C54.5981 43.5891 57.817 45.0465 61.7937 45.9091L62.2177 43.9545ZM53.5303 39.9878C51.5613 38.2333 50.5493 35.8329 50.5625 32.6633L48.5625 32.6549C48.5473 36.3035 49.737 39.2866 52.1998 41.481L53.5303 39.9878ZM50.5625 32.654C50.5493 30.0765 51.2327 27.865 52.5903 25.9773L50.9666 24.8096C49.3412 27.0697 48.5473 29.7019 48.5625 32.6642L50.5625 32.654ZM52.5895 25.9784C53.978 24.0529 55.9091 22.5323 58.4229 21.43L57.6197 19.5984C54.821 20.8256 52.5902 22.5579 50.9673 24.8086L52.5895 25.9784ZM58.4211 21.4308C60.9444 20.3302 63.8654 19.767 67.2046 19.767V17.767C63.6403 17.767 60.4392 18.3686 57.6215 19.5976L58.4211 21.4308ZM67.2046 19.767C70.6178 19.767 73.5161 20.3383 75.9284 21.4445L76.762 19.6265C74.0322 18.3747 70.8368 17.767 67.2046 17.767V19.767ZM75.9284 21.4445C78.3459 22.5531 80.1729 24.0965 81.451 26.0657L83.1286 24.9769C81.6225 22.6563 79.4865 20.8759 76.762 19.6265L75.9284 21.4445ZM81.4552 26.0721C82.7421 28.022 83.4071 30.3202 83.4205 33.005L85.4205 32.995C85.4054 29.9695 84.65 27.282 83.1244 24.9705L81.4552 26.0721ZM84.4205 32H73.0852V34H84.4205V32Z" fill="#F2A167" mask="url(#path-1-outside-1_24_2)"/>
<line y1="2.5" x2="105" y2="2.5" stroke="#F2A167" stroke-width="5"/>
<line y1="75.5" x2="105" y2="75.5" stroke="#F2A167" stroke-width="5"/>
</svg>
