<svg width="327" height="97" viewBox="0 0 327 97" fill="none" xmlns="http://www.w3.org/2000/svg">
<path d="M25.2727 1.90909V95H0V1.90909H25.2727ZM57.5682 77.3409H48.9091C48.8636 76.8068 48.6761 76.3466 48.3466 75.9602C48.017 75.5739 47.5909 75.2784 47.0682 75.0739C46.5568 74.858 45.9886 74.75 45.3636 74.75C44.5568 74.75 43.8636 74.8977 43.2841 75.1932C42.7045 75.4886 42.4205 75.9091 42.4318 76.4545C42.4205 76.8409 42.5852 77.1989 42.9261 77.5284C43.2784 77.858 43.9545 78.1136 44.9545 78.2955L50.2727 79.25C52.9545 79.7386 54.9489 80.5625 56.2557 81.7216C57.5739 82.8693 58.2386 84.4091 58.25 86.3409C58.2386 88.2045 57.6818 89.8239 56.5795 91.1989C55.4886 92.5625 53.9943 93.6193 52.0966 94.3693C50.2102 95.108 48.0568 95.4773 45.6364 95.4773C41.6364 95.4773 38.5057 94.6591 36.2443 93.0227C33.9943 91.3864 32.7386 89.2273 32.4773 86.5455H41.8182C41.9432 87.375 42.3523 88.017 43.0455 88.4716C43.75 88.9148 44.6364 89.1364 45.7045 89.1364C46.5682 89.1364 47.2784 88.9886 47.8352 88.6932C48.4034 88.3977 48.6932 87.9773 48.7045 87.4318C48.6932 86.9318 48.4432 86.5341 47.9545 86.2386C47.4773 85.9432 46.7273 85.7045 45.7045 85.5227L41.0682 84.7045C38.3977 84.2386 36.3977 83.3523 35.0682 82.0455C33.7386 80.7386 33.0795 79.0568 33.0909 77C33.0795 75.1818 33.5568 73.642 34.5227 72.3807C35.5 71.108 36.892 70.142 38.6989 69.483C40.517 68.8125 42.6705 68.4773 45.1591 68.4773C48.9432 68.4773 51.9261 69.2614 54.108 70.8295C56.3011 72.3977 57.4545 74.5682 57.5682 77.3409ZM69.1506 95.4091C67.4801 95.4091 66.0028 95.1364 64.7188 94.5909C63.446 94.0341 62.446 93.1932 61.7188 92.0682C60.9915 90.9432 60.6278 89.5114 60.6278 87.7727C60.6278 86.3409 60.8722 85.1193 61.3608 84.108C61.8494 83.0852 62.5312 82.25 63.4062 81.6023C64.2812 80.9545 65.2983 80.4602 66.4574 80.1193C67.6278 79.7784 68.8892 79.5568 70.2415 79.4545C71.7074 79.3409 72.8835 79.2045 73.7699 79.0455C74.6676 78.875 75.3153 78.642 75.7131 78.3466C76.1108 78.0398 76.3097 77.6364 76.3097 77.1364V77.0682C76.3097 76.3864 76.0483 75.8636 75.5256 75.5C75.0028 75.1364 74.3324 74.9545 73.5142 74.9545C72.6165 74.9545 71.8835 75.1534 71.3153 75.5511C70.7585 75.9375 70.4233 76.5341 70.3097 77.3409H61.6506C61.7642 75.75 62.2699 74.2841 63.1676 72.9432C64.0767 71.5909 65.4006 70.5114 67.1392 69.7045C68.8778 68.8864 71.0483 68.4773 73.6506 68.4773C75.5256 68.4773 77.2074 68.6989 78.696 69.142C80.1847 69.5739 81.4517 70.1818 82.4972 70.9659C83.5426 71.7386 84.3381 72.6477 84.8835 73.6932C85.4403 74.7273 85.7188 75.8523 85.7188 77.0682V95H76.9233V91.3182H76.7188C76.196 92.2955 75.5597 93.0852 74.8097 93.6875C74.071 94.2898 73.2244 94.7273 72.2699 95C71.3267 95.2727 70.2869 95.4091 69.1506 95.4091ZM72.2188 89.4773C72.9347 89.4773 73.6051 89.3295 74.2301 89.0341C74.8665 88.7386 75.3835 88.3125 75.7812 87.7557C76.179 87.1989 76.3778 86.5227 76.3778 85.7273V83.5455C76.1278 83.6477 75.8608 83.7443 75.5767 83.8352C75.304 83.9261 75.0085 84.0114 74.6903 84.0909C74.3835 84.1705 74.054 84.2443 73.7017 84.3125C73.3608 84.3807 73.0028 84.4432 72.6278 84.5C71.9006 84.6136 71.304 84.8011 70.8381 85.0625C70.3835 85.3125 70.0426 85.625 69.8153 86C69.5994 86.3636 69.4915 86.7727 69.4915 87.2273C69.4915 87.9545 69.7472 88.5114 70.2585 88.8977C70.7699 89.2841 71.4233 89.4773 72.2188 89.4773ZM90.2145 95V68.8182H99.1463V73.7955H99.419C99.9645 72.1591 100.896 70.8636 102.214 69.9091C103.533 68.9545 105.101 68.4773 106.919 68.4773C108.76 68.4773 110.345 68.9659 111.675 69.9432C113.004 70.9091 113.805 72.1932 114.078 73.7955H114.351C114.794 72.1932 115.737 70.9091 117.18 69.9432C118.624 68.9659 120.317 68.4773 122.26 68.4773C124.771 68.4773 126.805 69.2841 128.362 70.8977C129.93 72.5114 130.714 74.6591 130.714 77.3409V95H121.305V79.7273C121.305 78.5795 121.016 77.6818 120.436 77.0341C119.857 76.375 119.078 76.0455 118.101 76.0455C117.135 76.0455 116.368 76.375 115.8 77.0341C115.243 77.6818 114.964 78.5795 114.964 79.7273V95H105.964V79.7273C105.964 78.5795 105.675 77.6818 105.095 77.0341C104.516 76.375 103.737 76.0455 102.76 76.0455C102.112 76.0455 101.555 76.1932 101.089 76.4886C100.624 76.7841 100.26 77.2102 99.9986 77.767C99.7486 78.3125 99.6236 78.9659 99.6236 79.7273V95H90.2145ZM135.355 95V68.8182H144.764V95H135.355ZM140.06 66.0909C138.787 66.0909 137.696 65.6705 136.787 64.8295C135.878 63.9886 135.423 62.9773 135.423 61.7955C135.423 60.6136 135.878 59.6023 136.787 58.7614C137.696 57.9205 138.787 57.5 140.06 57.5C141.344 57.5 142.435 57.9205 143.332 58.7614C144.241 59.6023 144.696 60.6136 144.696 61.7955C144.696 62.9773 144.241 63.9886 143.332 64.8295C142.435 65.6705 141.344 66.0909 140.06 66.0909ZM212.916 31C212.674 27.9697 211.537 25.6061 209.507 23.9091C207.507 22.2121 204.462 21.3636 200.371 21.3636C197.765 21.3636 195.628 21.6818 193.962 22.3182C192.325 22.9242 191.113 23.7576 190.325 24.8182C189.537 25.8788 189.128 27.0909 189.098 28.4545C189.037 29.5758 189.234 30.5909 189.689 31.5C190.174 32.3788 190.931 33.1818 191.962 33.9091C192.992 34.6061 194.31 35.2424 195.916 35.8182C197.522 36.3939 199.431 36.9091 201.643 37.3636L209.28 39C214.431 40.0909 218.84 41.5303 222.507 43.3182C226.174 45.1061 229.174 47.2121 231.507 49.6364C233.84 52.0303 235.553 54.7273 236.643 57.7273C237.765 60.7273 238.34 64 238.371 67.5455C238.34 73.6667 236.81 78.8485 233.78 83.0909C230.75 87.3333 226.416 90.5606 220.78 92.7727C215.174 94.9848 208.431 96.0909 200.553 96.0909C192.462 96.0909 185.401 94.8939 179.371 92.5C173.371 90.1061 168.704 86.4242 165.371 81.4545C162.068 76.4545 160.401 70.0606 160.371 62.2727H184.371C184.522 65.1212 185.234 67.5152 186.507 69.4545C187.78 71.3939 189.568 72.8636 191.871 73.8636C194.204 74.8636 196.977 75.3636 200.189 75.3636C202.886 75.3636 205.143 75.0303 206.962 74.3636C208.78 73.697 210.159 72.7727 211.098 71.5909C212.037 70.4091 212.522 69.0606 212.553 67.5455C212.522 66.1212 212.053 64.8788 211.143 63.8182C210.265 62.7273 208.81 61.7576 206.78 60.9091C204.75 60.0303 202.007 59.2121 198.553 58.4545L189.28 56.4545C181.037 54.6667 174.537 51.6818 169.78 47.5C165.053 43.2879 162.704 37.5455 162.734 30.2727C162.704 24.3636 164.28 19.197 167.462 14.7727C170.674 10.3182 175.113 6.84848 180.78 4.36363C186.477 1.87878 193.007 0.63636 200.371 0.63636C207.886 0.63636 214.386 1.89394 219.871 4.40909C225.356 6.92424 229.583 10.4697 232.553 15.0455C235.553 19.5909 237.068 24.9091 237.098 31H212.916ZM256.916 95.4773C254.121 95.4773 251.712 94.9432 249.689 93.875C247.678 92.7955 246.126 91.25 245.036 89.2386C243.956 87.2159 243.416 84.7955 243.416 81.9773C243.416 79.2727 243.962 76.9091 245.053 74.8864C246.143 72.8636 247.683 71.2898 249.672 70.1648C251.661 69.0398 254.007 68.4773 256.712 68.4773C258.689 68.4773 260.479 68.7841 262.081 69.3977C263.683 70.0114 265.053 70.9034 266.189 72.0739C267.325 73.233 268.2 74.642 268.814 76.3011C269.428 77.9602 269.734 79.8295 269.734 81.9091V84.0909H246.348V78.9091H261.075C261.064 78.1591 260.871 77.5 260.496 76.9318C260.132 76.3523 259.638 75.9034 259.013 75.5852C258.399 75.2557 257.7 75.0909 256.916 75.0909C256.155 75.0909 255.456 75.2557 254.82 75.5852C254.183 75.9034 253.672 76.3466 253.286 76.9148C252.911 77.483 252.712 78.1477 252.689 78.9091V84.5C252.689 85.3409 252.865 86.0909 253.217 86.75C253.57 87.4091 254.075 87.9261 254.734 88.3011C255.393 88.6761 256.189 88.8636 257.121 88.8636C257.768 88.8636 258.359 88.7727 258.893 88.5909C259.439 88.4091 259.905 88.1477 260.291 87.8068C260.678 87.4545 260.962 87.0341 261.143 86.5455H269.734C269.439 88.3636 268.74 89.9432 267.638 91.2841C266.536 92.6136 265.075 93.6477 263.257 94.3864C261.45 95.1136 259.337 95.4773 256.916 95.4773ZM282.028 88.7955L282.097 77.6136H283.324L289.665 68.8182H300.233L289.597 82.5227H286.938L282.028 88.7955ZM273.574 95V60.0909H282.983V95H273.574ZM289.733 95L283.733 84.6364L289.869 77.9545L300.506 95H289.733ZM302.683 95V68.8182H312.092V95H302.683ZM307.388 66.0909C306.115 66.0909 305.024 65.6705 304.115 64.8295C303.206 63.9886 302.751 62.9773 302.751 61.7955C302.751 60.6136 303.206 59.6023 304.115 58.7614C305.024 57.9205 306.115 57.5 307.388 57.5C308.672 57.5 309.763 57.9205 310.661 58.7614C311.57 59.6023 312.024 60.6136 312.024 61.7955C312.024 62.9773 311.57 63.9886 310.661 64.8295C309.763 65.6705 308.672 66.0909 307.388 66.0909ZM322 95.5455C320.682 95.5455 319.551 95.0852 318.608 94.1648C317.676 93.233 317.216 92.1023 317.227 90.7727C317.216 89.4773 317.676 88.3693 318.608 87.4489C319.551 86.5284 320.682 86.0682 322 86.0682C323.25 86.0682 324.352 86.5284 325.307 87.4489C326.273 88.3693 326.761 89.4773 326.773 90.7727C326.761 91.6591 326.528 92.4659 326.074 93.1932C325.631 93.9091 325.051 94.483 324.335 94.9148C323.619 95.3352 322.841 95.5455 322 95.5455Z" fill="#FFFCFC"/>
</svg>
