<svg width="157" height="78" viewBox="0 0 157 78" fill="none" xmlns="http://www.w3.org/2000/svg">
<path d="M72.672 19.3636V63H60.8254V19.3636H72.672ZM101.809 33C101.695 31.5795 101.163 30.4716 100.211 29.6761C99.2735 28.8807 97.846 28.483 95.9284 28.483C94.7068 28.483 93.7054 28.6321 92.9241 28.9304C92.1571 29.2145 91.5889 29.6051 91.2196 30.1023C90.8502 30.5994 90.6585 31.1676 90.6443 31.8068C90.6159 32.3324 90.7082 32.8082 90.9213 33.2344C91.1485 33.6463 91.5037 34.0227 91.9866 34.3636C92.4696 34.6903 93.0875 34.9886 93.8403 35.2585C94.5931 35.5284 95.488 35.7699 96.525 35.983L100.105 36.75C102.519 37.2614 104.586 37.9361 106.305 38.7741C108.024 39.6122 109.43 40.5994 110.524 41.7358C111.617 42.858 112.42 44.1222 112.931 45.5284C113.457 46.9347 113.727 48.4687 113.741 50.1307C113.727 53 113.009 55.429 111.589 57.4176C110.168 59.4062 108.137 60.919 105.495 61.956C102.867 62.9929 99.7068 63.5114 96.0136 63.5114C92.221 63.5114 88.9113 62.9503 86.0846 61.8281C83.2721 60.706 81.0846 58.9801 79.5221 56.6506C77.9738 54.3068 77.1926 51.3097 77.1784 47.6591H88.4284C88.4994 48.9943 88.8332 50.1165 89.4298 51.0256C90.0264 51.9347 90.8645 52.6236 91.944 53.0923C93.0377 53.5611 94.3375 53.7955 95.8431 53.7955C97.1074 53.7955 98.1656 53.6392 99.0179 53.3267C99.8701 53.0142 100.516 52.581 100.957 52.027C101.397 51.473 101.624 50.8409 101.639 50.1307C101.624 49.4631 101.404 48.8807 100.978 48.3835C100.566 47.8722 99.8843 47.4176 98.9326 47.0199C97.9809 46.608 96.6954 46.2244 95.0761 45.8693L90.7295 44.9318C86.8659 44.0937 83.819 42.6946 81.5889 40.7344C79.373 38.7599 78.2721 36.0682 78.2863 32.6591C78.2721 29.8892 79.0108 27.4673 80.5022 25.3935C82.0079 23.3054 84.0889 21.679 86.7451 20.5142C89.4156 19.3494 92.4767 18.767 95.9284 18.767C99.4511 18.767 102.498 19.3565 105.069 20.5355C107.64 21.7145 109.622 23.3764 111.014 25.5213C112.42 27.652 113.13 30.1449 113.144 33H101.809Z" fill="#FFFCFC"/>
<line y1="2.5" x2="157" y2="2.5" stroke="#FFFCFC" stroke-width="5"/>
<line y1="75.5" x2="157" y2="75.5" stroke="#FFFCFC" stroke-width="5"/>
</svg>
