<svg width="201" height="76" viewBox="0 0 201 76" fill="none" xmlns="http://www.w3.org/2000/svg">
<path d="M40.1364 27C39.9545 24.7273 39.1023 22.9545 37.5795 21.6818C36.0795 20.4091 33.7955 19.7727 30.7273 19.7727C28.7727 19.7727 27.1705 20.0114 25.9205 20.4886C24.6932 20.9432 23.7841 21.5682 23.1932 22.3636C22.6023 23.1591 22.2955 24.0682 22.2727 25.0909C22.2273 25.9318 22.375 26.6932 22.7159 27.375C23.0795 28.0341 23.6477 28.6364 24.4205 29.1818C25.1932 29.7045 26.1818 30.1818 27.3864 30.6136C28.5909 31.0455 30.0227 31.4318 31.6818 31.7727L37.4091 33C41.2727 33.8182 44.5795 34.8977 47.3295 36.2386C50.0795 37.5795 52.3295 39.1591 54.0795 40.9773C55.8295 42.7727 57.1136 44.7955 57.9318 47.0455C58.7727 49.2955 59.2045 51.75 59.2273 54.4091C59.2045 59 58.0568 62.8864 55.7841 66.0682C53.5114 69.25 50.2614 71.6705 46.0341 73.3295C41.8295 74.9886 36.7727 75.8182 30.8636 75.8182C24.7955 75.8182 19.5 74.9205 14.9773 73.125C10.4773 71.3295 6.97727 68.5682 4.47727 64.8409C2 61.0909 0.75 56.2955 0.727273 50.4545H18.7273C18.8409 52.5909 19.375 54.3864 20.3295 55.8409C21.2841 57.2955 22.625 58.3977 24.3523 59.1477C26.1023 59.8977 28.1818 60.2727 30.5909 60.2727C32.6136 60.2727 34.3068 60.0227 35.6705 59.5227C37.0341 59.0227 38.0682 58.3295 38.7727 57.4432C39.4773 56.5568 39.8409 55.5455 39.8636 54.4091C39.8409 53.3409 39.4886 52.4091 38.8068 51.6136C38.1477 50.7955 37.0568 50.0682 35.5341 49.4318C34.0114 48.7727 31.9545 48.1591 29.3636 47.5909L22.4091 46.0909C16.2273 44.75 11.3523 42.5114 7.78409 39.375C4.23864 36.2159 2.47727 31.9091 2.5 26.4545C2.47727 22.0227 3.65909 18.1477 6.04545 14.8295C8.45455 11.4886 11.7841 8.88636 16.0341 7.02272C20.3068 5.15909 25.2045 4.22727 30.7273 4.22727C36.3636 4.22727 41.2386 5.17045 45.3523 7.05682C49.4659 8.94318 52.6364 11.6023 54.8636 15.0341C57.1136 18.4432 58.25 22.4318 58.2727 27H40.1364ZM83.6193 62.5909L83.7557 40.2273H86.2102L98.892 22.6364H120.028L98.7557 50.0455H93.4375L83.6193 62.5909ZM66.7102 75V5.18182H85.5284V75H66.7102ZM99.0284 75L87.0284 54.2727L99.3011 40.9091L120.574 75H99.0284ZM124.929 75V22.6364H143.747V75H124.929ZM134.338 17.1818C131.793 17.1818 129.611 16.3409 127.793 14.6591C125.974 12.9773 125.065 10.9545 125.065 8.59091C125.065 6.22727 125.974 4.20454 127.793 2.52272C129.611 0.840908 131.793 0 134.338 0C136.906 0 139.088 0.840908 140.884 2.52272C142.702 4.20454 143.611 6.22727 143.611 8.59091C143.611 10.9545 142.702 12.9773 140.884 14.6591C139.088 16.3409 136.906 17.1818 134.338 17.1818ZM172.153 5.18182V75H153.335V5.18182H172.153ZM200.56 5.18182V75H181.741V5.18182H200.56Z" fill="#FFFCFC"/>
</svg>
